# Blender v3.2.0 OBJ File: 'level4.blend'
# www.blender.org
mtllib level4.mtl
o Plane
v -0.250000 0.000000 -0.502626
v -1.000000 -0.250000 -0.502626
v 0.250000 0.000000 -0.502626
v -0.750000 -0.250000 -0.502626
v 0.000000 1.000000 0.000000
v 0.000000 -1.000000 0.000000
v -1.000000 0.000000 0.000000
v 1.000000 0.000000 0.000000
v 0.000000 0.000000 0.000000
v 0.500000 -1.000000 0.000000
v 0.500000 1.000000 0.000000
v -1.000000 0.500496 -0.502626
v -0.500000 1.000000 0.000000
v -0.500000 -1.000000 0.000000
v -1.000000 0.000000 -0.502626
v -0.250000 -1.000000 0.000000
v -0.250000 0.000000 0.000000
v -0.250000 1.000000 0.000000
v 0.250000 1.000000 0.000000
v 0.250000 -1.000000 0.000000
v 0.250000 0.000000 0.000000
v -1.000000 -0.500000 -0.502626
v 0.753289 0.000000 0.000000
v 0.250000 -1.000000 -0.502626
v -0.250000 -1.000000 -0.502626
v 0.753289 -0.250000 -0.502626
v -0.750000 0.000000 0.000000
v 1.000000 0.500496 0.000000
v 0.500000 1.000000 -0.502626
v -1.000000 0.500496 0.000000
v 1.000000 0.500496 -0.502626
v 0.500000 -1.000000 -0.502626
v 0.000000 0.000000 -0.502626
v 1.000000 0.000000 -0.502626
v 0.753289 0.500496 0.000000
v -0.750000 0.500496 0.000000
v -1.000000 -0.500000 0.000000
v 1.000000 -0.500000 0.000000
v 0.000000 -0.250000 -0.502626
v 1.000000 -0.250000 -0.502626
v -0.750000 -0.500000 -0.502626
v 0.753289 -0.500000 -0.502626
v 1.000000 -0.500000 -0.502626
v 0.753289 -0.500000 0.000000
v -0.750000 -0.500000 0.000000
v 1.000000 -0.250000 0.000000
v 0.000000 -0.250000 0.000000
v -0.750000 0.000000 -0.502626
v 0.000000 -1.000000 -0.502626
v -0.250000 -0.250000 0.000000
v 0.250000 -0.250000 0.000000
v 0.753289 -0.250000 0.000000
v -0.750000 -0.250000 0.000000
v -1.000000 -0.250000 0.000000
v -1.000000 0.250248 0.000000
v 1.000000 0.250248 0.000000
v 0.000000 0.250248 0.000000
v 0.753289 0.000000 -0.502626
v 0.000000 1.000000 -0.502626
v -0.250000 0.250248 0.000000
v 0.250000 0.250248 0.000000
v 0.753289 0.250248 0.000000
v -0.750000 0.250248 0.000000
v 0.250000 1.000000 -0.502626
v 0.000000 0.750248 0.000000
v 0.500000 0.750248 0.000000
v -0.500000 0.750248 0.000000
v -0.250000 0.750248 0.000000
v 0.250000 0.750248 0.000000
v -0.250000 1.000000 -0.502626
v -0.500000 -1.000000 -0.502626
v -0.500000 1.000000 -0.502626
v 0.250000 -0.250000 -0.502626
v 0.753289 0.500496 -0.502626
v 0.000000 -0.750000 0.000000
v 0.500000 -0.750000 0.000000
v -0.500000 -0.750000 0.000000
v -0.250000 -0.750000 0.000000
v 0.250000 -0.750000 0.000000
v -0.750000 0.500496 -0.502626
v -0.250000 -0.250000 -0.502626
v -1.000000 0.250248 -0.502626
v 1.000000 0.250248 -0.502626
v 0.000000 0.250248 -0.502626
v -0.250000 0.250248 -0.502626
v 0.250000 0.250248 -0.502626
v 0.753289 0.250248 -0.502626
v -0.750000 0.250248 -0.502626
v 0.000000 0.750248 -0.502626
v 0.500000 0.750248 -0.502626
v -0.500000 0.750248 -0.502626
v -0.250000 0.750248 -0.502626
v 0.250000 0.750248 -0.502626
v 0.000000 -0.750000 -0.502626
v 0.500000 -0.750000 -0.502626
v -0.500000 -0.750000 -0.502626
v -0.250000 -0.750000 -0.502626
v 0.250000 -0.750000 -0.502626
vt 0.000000 0.625000
vt 0.000000 0.625000
vt 0.000000 0.500000
vt 0.000000 0.500000
vt 0.875000 0.375000
vt 1.000000 0.375000
vt 1.000000 0.500000
vt 0.875000 0.500000
vt 0.374876 0.375000
vt 0.500000 0.375000
vt 0.500000 0.500000
vt 0.374876 0.500000
vt 0.374876 0.876644
vt 0.500000 0.876644
vt 0.500000 1.000000
vt 0.374876 1.000000
vt 0.625000 0.125000
vt 0.625000 0.125000
vt 0.500000 0.125000
vt 0.500000 0.125000
vt 0.875000 0.625000
vt 1.000000 0.625000
vt 1.000000 0.750000
vt 0.875000 0.750000
vt 0.374876 0.876644
vt 0.374876 1.000000
vt 0.500000 1.000000
vt 0.500000 0.876644
vt 0.875000 0.625000
vt 0.875000 0.500000
vt 0.875000 0.375000
vt 1.000000 0.500000
vt 1.000000 0.375000
vt 0.875000 0.250000
vt 1.000000 0.250000
vt 0.500000 0.625000
vt 0.374876 0.625000
vt 0.249752 0.000000
vt 0.249752 0.000000
vt 0.374876 0.000000
vt 0.374876 0.000000
vt 0.124876 0.625000
vt 0.124876 0.625000
vt 0.124876 0.750000
vt 0.124876 0.750000
vt 0.374876 0.375000
vt 0.500000 0.375000
vt 0.500000 0.000000
vt 0.374876 0.125000
vt 0.500000 0.500000
vt 0.625000 0.500000
vt 0.625000 0.375000
vt 0.124876 0.500000
vt 0.625000 0.000000
vt 0.750000 0.125000
vt 0.750000 0.000000
vt 0.875000 0.250000
vt 1.000000 0.250000
vt 0.500000 0.625000
vt 0.625000 0.625000
vt 0.000000 0.250000
vt 0.000000 0.375000
vt 0.124876 0.375000
vt 0.124876 0.250000
vt 0.249752 0.876644
vt 0.249752 1.000000
vt 0.374876 0.125000
vt 0.500000 0.000000
vt 0.625000 0.000000
vt 0.750000 0.000000
vt 0.750000 0.125000
vt 0.374876 0.500000
vt 0.625000 0.625000
vt 1.000000 0.625000
vt 0.000000 0.750000
vt 0.000000 0.750000
vt 0.625000 0.876644
vt 0.750000 0.876644
vt 0.750000 1.000000
vt 0.625000 1.000000
vt 0.625000 0.375000
vt 0.625000 0.500000
vt 0.875000 0.750000
vt 1.000000 0.750000
vt 0.249752 0.125000
vt 0.124876 0.375000
vt 0.124876 0.500000
vt 0.625000 0.876644
vt 0.625000 1.000000
vt 0.750000 1.000000
vt 0.750000 0.876644
vt 0.374876 0.625000
vt 0.249752 0.876644
vt 0.249752 1.000000
vt 0.000000 0.375000
vt 0.000000 0.250000
vt 0.124876 0.250000
vt 0.249752 0.125000
vn 0.0000 1.0000 0.0000
vn 0.0000 0.0000 1.0000
vn 1.0000 0.0000 0.0000
vn 0.0000 0.0000 -1.0000
vn -1.0000 0.0000 0.0000
vn 0.0000 -1.0000 0.0000
usemtl None
s off
f 19/1/1 64/2/1 59/3/1 5/4/1
f 78/5/2 16/6/2 6/7/2 75/8/2
f 60/9/2 17/10/2 9/11/2 57/12/2
f 62/13/2 23/14/2 8/15/2 56/16/2
f 53/17/3 4/18/3 48/19/3 27/20/3
f 79/21/2 20/22/2 10/23/2 76/24/2
f 87/25/4 83/26/4 34/27/4 58/28/4
f 79/21/1 98/29/1 94/30/1 75/8/1
f 97/31/4 94/30/4 49/32/4 25/33/4
f 77/34/2 14/35/2 16/6/2 78/5/2
f 75/8/2 6/7/2 20/22/2 79/21/2
f 57/12/2 9/11/2 21/36/2 61/37/2
f 30/38/5 12/39/5 82/40/5 55/41/5
f 69/42/6 93/43/6 90/44/6 66/45/6
f 60/9/5 85/46/5 1/47/5 17/10/5
f 55/41/2 7/48/2 27/20/2 63/49/2
f 1/47/4 33/50/4 39/51/4 81/52/4
f 59/3/4 64/2/4 93/43/4 89/53/4
f 2/54/4 4/18/4 41/55/4 22/56/4
f 96/57/4 97/31/4 25/33/4 71/58/4
f 33/50/4 3/59/4 73/60/4 39/51/4
f 72/61/4 70/62/4 92/63/4 91/64/4
f 74/65/4 31/66/4 83/26/4 87/25/4
f 82/40/4 88/67/4 48/19/4 15/68/4
f 54/69/2 37/70/2 45/71/2 53/17/2
f 57/12/1 84/72/1 85/46/1 60/9/1
f 51/73/3 73/60/3 3/59/3 21/36/3
f 6/7/6 49/32/6 24/74/6 20/22/6
f 37/70/6 22/56/6 41/55/6 45/71/6
f 66/45/3 90/44/3 29/75/3 11/76/3
f 45/71/3 41/55/3 4/18/3 53/17/3
f 52/77/2 44/78/2 38/79/2 46/80/2
f 23/14/2 52/77/2 46/80/2 8/15/2
f 17/10/2 50/81/2 47/82/2 9/11/2
f 8/15/3 34/27/3 83/26/3 56/16/3
f 98/29/4 95/83/4 32/84/4 24/74/4
f 85/46/4 84/72/4 33/50/4 1/47/4
f 9/11/2 47/82/2 51/73/2 21/36/2
f 17/10/5 1/47/5 81/52/5 50/81/5
f 7/48/2 54/69/2 53/17/2 27/20/2
f 30/38/2 55/41/2 63/49/2 36/85/2
f 68/86/6 92/63/6 89/53/6 65/87/6
f 26/88/4 40/89/4 43/90/4 42/91/4
f 94/30/4 98/29/4 24/74/4 49/32/4
f 84/72/4 86/92/4 3/59/4 33/50/4
f 20/22/6 24/74/6 32/84/6 10/23/6
f 35/93/2 62/13/2 56/16/2 28/94/2
f 58/28/4 34/27/4 40/89/4 26/88/4
f 18/95/2 68/86/2 65/87/2 5/4/2
f 64/2/4 29/75/4 90/44/4 93/43/4
f 19/1/2 69/42/2 66/45/2 11/76/2
f 15/68/4 48/19/4 4/18/4 2/54/4
f 13/96/2 67/97/2 68/86/2 18/95/2
f 5/4/2 65/87/2 69/42/2 19/1/2
f 70/62/4 59/3/4 89/53/4 92/63/4
f 12/39/4 80/98/4 88/67/4 82/40/4
f 18/95/1 70/62/1 72/61/1 13/96/1
f 56/16/3 83/26/3 31/66/3 28/94/3
f 65/87/6 89/53/6 93/43/6 69/42/6
f 52/77/5 26/88/5 42/91/5 44/78/5
f 7/48/5 15/68/5 2/54/5 54/69/5
f 67/97/6 91/64/6 92/63/6 68/86/6
f 28/94/1 31/66/1 74/65/1 35/93/1
f 11/76/1 29/75/1 64/2/1 19/1/1
f 78/5/1 97/31/1 96/57/1 77/34/1
f 16/6/6 25/33/6 49/32/6 6/7/6
f 21/36/3 3/59/3 86/92/3 61/37/3
f 54/69/5 2/54/5 22/56/5 37/70/5
f 50/81/6 81/52/6 39/51/6 47/82/6
f 62/13/5 87/25/5 58/28/5 23/14/5
f 13/96/5 72/61/5 91/64/5 67/97/5
f 76/24/1 95/83/1 98/29/1 79/21/1
f 55/41/5 82/40/5 15/68/5 7/48/5
f 27/20/3 48/19/3 88/67/3 63/49/3
f 75/8/1 94/30/1 97/31/1 78/5/1
f 44/78/6 42/91/6 43/90/6 38/79/6
f 46/80/3 40/89/3 34/27/3 8/15/3
f 14/35/6 71/58/6 25/33/6 16/6/6
f 35/93/5 74/65/5 87/25/5 62/13/5
f 38/79/3 43/90/3 40/89/3 46/80/3
f 23/14/5 58/28/5 26/88/5 52/77/5
f 10/23/3 32/84/3 95/83/3 76/24/3
f 47/82/6 39/51/6 73/60/6 51/73/6
f 63/49/3 88/67/3 80/98/3 36/85/3
f 61/37/1 86/92/1 84/72/1 57/12/1
f 77/34/5 96/57/5 71/58/5 14/35/5
f 5/4/1 59/3/1 70/62/1 18/95/1
f 36/85/1 80/98/1 12/39/1 30/38/1
